<svg width="340" height="334" viewBox="0 0 340 334" fill="none" xmlns="http://www.w3.org/2000/svg">
<g clip-path="url(#clip0_6_20)">
<path fill-rule="evenodd" clip-rule="evenodd" d="M267.287 326.439C226.74 349.455 180.716 308.954 137.084 292.52C100.379 278.695 60.7512 270.892 36.9808 239.694C10.0865 204.396 -5.3817 159.893 2.80114 116.278C11.5457 69.669 36.7855 20.7627 81.1825 4.09584C122.931 -11.5766 161.47 29.2192 204.607 40.5191C248.246 51.9501 307.161 31.671 331.484 69.6626C355.831 107.691 315.893 153.431 304.941 197.236C293.63 242.478 307.843 303.418 267.287 326.439Z" fill="#3B82F6"/>
<g clip-path="url(#clip1_6_20)">
<path d="M153.119 203.842C192.111 193.394 216.238 155.109 209.878 116.048C209.207 111.902 205.057 109.275 201.021 110.356C197.532 111.291 195.287 114.679 195.862 118.191C201.21 150.191 181.399 181.6 149.453 190.16C128.11 195.879 106.384 190.043 90.9528 176.508L101.077 173.795C104.839 172.787 107.093 168.884 106.085 165.122C105.077 161.359 101.173 159.106 97.4111 160.114L70.0484 167.446C66.286 168.454 64.0325 172.357 65.0407 176.119L72.3725 203.482C73.3806 207.244 77.2837 209.498 81.0461 208.49C84.8085 207.482 87.0619 203.578 86.0538 199.816L82.9928 188.392C101.775 204.035 127.671 210.66 153.119 203.842ZM112.794 53.3468C73.8019 63.7946 49.6742 102.08 56.0346 141.14C56.7741 145.268 60.8556 147.914 64.8916 146.832C68.3803 145.897 70.6253 142.51 70.0508 138.998C64.7025 106.998 84.5137 75.588 116.46 67.0281C137.803 61.3093 159.529 67.1454 174.96 80.6803L164.836 83.3931C161.073 84.4012 158.82 88.3044 159.828 92.0667C160.836 95.8291 164.739 98.0826 168.501 97.0745L195.864 89.7427C199.626 88.7345 201.88 84.8314 200.872 81.069L193.54 53.7063C192.532 49.944 188.629 47.6905 184.866 48.6986C181.104 49.7067 178.851 53.6099 179.859 57.3722L182.92 68.7962C173.327 60.7846 161.948 55.1986 149.743 52.5097C137.538 49.8208 124.865 50.1079 112.794 53.3468ZM115.719 88.3423C114.821 84.9904 116.842 81.5893 120.126 80.7095C123.409 79.8297 126.86 81.7644 127.758 85.1163L128.437 87.6473C136.104 86.9858 141.801 89.6386 145.595 92.581C148.728 94.9677 148.669 99.6757 145.515 102.134C143.328 103.82 140.235 103.769 138.025 102.088C135.413 100.002 131.278 98.2504 125.668 99.7534C120.88 101.036 113.965 105.602 115.834 112.58C117.576 119.078 124.119 119.965 137.376 120.738C155.315 122.017 161.724 129.244 164.291 138.821C169.093 156.744 152.926 164.815 149.534 166.383L150.212 168.914C151.092 172.198 149.157 175.649 145.805 176.547C142.453 177.445 139.071 175.492 138.172 172.14L137.403 169.267C132.818 169.396 123.082 168.632 115.152 159.833C112.772 157.244 113.488 152.8 116.304 150.726C118.816 148.88 122.443 149.008 124.594 151.291C127.901 154.877 133.604 158.921 141.607 156.776C147.969 155.072 154.272 149.864 152.201 142.134C150.441 135.567 144.736 133.429 132.883 132.426C124.644 131.775 108.079 131.521 103.9 115.924C103.717 115.24 99.5693 99.4881 116.397 90.8733L115.719 88.3423Z" fill="#111827"/>
</g>
</g>
<defs>
<clipPath id="clip0_6_20">
<rect width="340" height="334" fill="white"/>
</clipPath>
<clipPath id="clip1_6_20">
<rect width="169.968" height="169.968" fill="white" transform="translate(28.8727 68.5016) rotate(-15)"/>
</clipPath>
</defs>
</svg>
