<svg width="815" height="608" viewBox="0 0 815 608" fill="none" xmlns="http://www.w3.org/2000/svg">
<g clip-path="url(#clip0_6_19)">
<path d="M164.422 -156C169.426 -1.00254 332.29 -8.36171 371.897 212.962C386.817 296.336 449.961 352.247 519.536 389.231C648.746 457.916 835.116 514.022 814.657 658.916V658.916" stroke="#3B82F6" stroke-width="3"/>
<path d="M147.422 -146C152.426 8.99746 315.29 1.63829 354.897 222.962C369.817 306.336 432.961 362.247 502.536 399.231C631.746 467.916 818.116 524.022 797.657 668.916V668.916" stroke="#3B82F6" stroke-width="3"/>
<path d="M130.422 -120C135.426 34.9975 298.29 27.6383 337.897 248.962C352.817 332.336 415.961 388.247 485.536 425.231C614.746 493.916 801.116 550.022 780.657 694.916V694.916" stroke="#3B82F6" stroke-width="3"/>
<path d="M101.422 -91C106.426 63.9975 269.29 56.6383 308.897 277.962C323.817 361.336 386.961 417.247 456.536 454.231C585.746 522.916 772.116 579.022 751.657 723.916V723.916" stroke="#3B82F6" stroke-width="3"/>
<path d="M57.4218 -65C62.4264 89.9975 225.29 82.6383 264.897 303.962C279.817 387.336 342.961 443.247 412.536 480.231C541.746 548.916 728.116 605.022 707.657 749.916V749.916" stroke="#3B82F6" stroke-width="3"/>
<path d="M0.421753 -24C5.4264 130.997 168.29 123.638 207.897 344.962C222.817 428.336 285.961 484.247 355.536 521.231C484.746 589.916 671.116 646.022 650.657 790.916V790.916" stroke="#3B82F6" stroke-width="3"/>
</g>
<defs>
<clipPath id="clip0_6_19">
<rect width="815" height="608" fill="white"/>
</clipPath>
</defs>
</svg>
